<svg width="251" height="39" viewBox="0 0 251 39" fill="none" xmlns="http://www.w3.org/2000/svg">
<g clip-path="url(#clip0_2008_32)">
<path d="M8.47997 31.52C6.58664 31.52 5.14664 31.1467 4.15997 30.4C3.19997 29.6267 2.54664 28.5467 2.19997 27.16C1.87997 25.7733 1.71997 24.16 1.71997 22.32V17C1.71997 15.0533 1.8933 13.4 2.23997 12.04C2.58664 10.6533 3.23997 9.6 4.19997 8.88C5.18664 8.13333 6.6133 7.76 8.47997 7.76C10.16 7.76 11.4533 8.04 12.36 8.6C13.2933 9.13333 13.9333 9.94666 14.28 11.04C14.6267 12.1067 14.8 13.44 14.8 15.04V16.4H10.92V15C10.92 13.9867 10.8533 13.1867 10.72 12.6C10.5867 12.0133 10.3467 11.5867 9.99997 11.32C9.6533 11.0533 9.15997 10.92 8.51997 10.92C7.82664 10.92 7.2933 11.08 6.91997 11.4C6.54664 11.72 6.2933 12.2667 6.15997 13.04C6.0533 13.7867 5.99997 14.8133 5.99997 16.12V23.4C5.99997 25.3733 6.18664 26.6933 6.55997 27.36C6.9333 28.0267 7.59997 28.36 8.55997 28.36C9.27997 28.36 9.79997 28.2 10.12 27.88C10.4667 27.5333 10.68 27.0533 10.76 26.44C10.8667 25.8267 10.92 25.1333 10.92 24.36V22.48H14.8V24.08C14.8 25.6267 14.6133 26.96 14.24 28.08C13.8933 29.2 13.2533 30.0533 12.32 30.64C11.4133 31.2267 10.1333 31.52 8.47997 31.52ZM24.77 31.52C23.0633 31.52 21.7167 31.1733 20.73 30.48C19.7433 29.7867 19.0367 28.8 18.61 27.52C18.21 26.24 18.01 24.7333 18.01 23V16.28C18.01 14.5467 18.21 13.04 18.61 11.76C19.0367 10.48 19.7433 9.49333 20.73 8.8C21.7167 8.10666 23.0633 7.76 24.77 7.76C26.4767 7.76 27.81 8.10666 28.77 8.8C29.7567 9.49333 30.45 10.48 30.85 11.76C31.2767 13.04 31.49 14.5467 31.49 16.28V23C31.49 24.7333 31.2767 26.24 30.85 27.52C30.45 28.8 29.7567 29.7867 28.77 30.48C27.81 31.1733 26.4767 31.52 24.77 31.52ZM24.77 28.36C25.5967 28.36 26.17 28.12 26.49 27.64C26.8367 27.16 27.0367 26.5333 27.09 25.76C27.17 24.96 27.21 24.1333 27.21 23.28V16.04C27.21 15.16 27.17 14.3333 27.09 13.56C27.0367 12.7867 26.8367 12.16 26.49 11.68C26.17 11.1733 25.5967 10.92 24.77 10.92C23.9433 10.92 23.3567 11.1733 23.01 11.68C22.6633 12.16 22.45 12.7867 22.37 13.56C22.3167 14.3333 22.29 15.16 22.29 16.04V23.28C22.29 24.1333 22.3167 24.96 22.37 25.76C22.45 26.5333 22.6633 27.16 23.01 27.64C23.3567 28.12 23.9433 28.36 24.77 28.36ZM35.4022 31.2V8.08H39.3622V10.28C40.1355 9.4 40.9889 8.74666 41.9222 8.32C42.8555 7.89333 43.8155 7.68 44.8022 7.68C45.6555 7.68 46.4155 7.89333 47.0822 8.32C47.7755 8.74666 48.2689 9.50666 48.5622 10.6C49.3889 9.58666 50.2822 8.85333 51.2422 8.39999C52.2289 7.92 53.2555 7.68 54.3222 7.68C55.0689 7.68 55.7489 7.86666 56.3622 8.24C56.9755 8.58666 57.4689 9.16 57.8422 9.96C58.2155 10.7333 58.4022 11.76 58.4022 13.04V31.2H54.4822V13.32C54.4822 12.2 54.2955 11.4533 53.9222 11.08C53.5755 10.68 53.0955 10.48 52.4822 10.48C51.8955 10.48 51.2822 10.6533 50.6422 11C50.0022 11.32 49.4155 11.7733 48.8822 12.36C48.8822 12.4667 48.8822 12.5733 48.8822 12.68C48.8822 12.7867 48.8822 12.9067 48.8822 13.04V31.2H44.9622V13.32C44.9622 12.2 44.7755 11.4533 44.4022 11.08C44.0555 10.68 43.5755 10.48 42.9622 10.48C42.3755 10.48 41.7622 10.6533 41.1222 11C40.5089 11.32 39.9222 11.7733 39.3622 12.36V31.2H35.4022ZM62.5897 31.2V8.08H66.5497V10.28C67.323 9.4 68.1764 8.74666 69.1097 8.32C70.043 7.89333 71.003 7.68 71.9897 7.68C72.843 7.68 73.603 7.89333 74.2697 8.32C74.963 8.74666 75.4564 9.50666 75.7497 10.6C76.5764 9.58666 77.4697 8.85333 78.4297 8.39999C79.4164 7.92 80.443 7.68 81.5097 7.68C82.2564 7.68 82.9364 7.86666 83.5497 8.24C84.163 8.58666 84.6564 9.16 85.0297 9.96C85.403 10.7333 85.5897 11.76 85.5897 13.04V31.2H81.6697V13.32C81.6697 12.2 81.483 11.4533 81.1097 11.08C80.763 10.68 80.283 10.48 79.6697 10.48C79.083 10.48 78.4697 10.6533 77.8297 11C77.1897 11.32 76.603 11.7733 76.0697 12.36C76.0697 12.4667 76.0697 12.5733 76.0697 12.68C76.0697 12.7867 76.0697 12.9067 76.0697 13.04V31.2H72.1497V13.32C72.1497 12.2 71.963 11.4533 71.5897 11.08C71.243 10.68 70.763 10.48 70.1497 10.48C69.563 10.48 68.9497 10.6533 68.3097 11C67.6964 11.32 67.1097 11.7733 66.5497 12.36V31.2H62.5897ZM93.0972 31.52C92.1905 31.52 91.4839 31.28 90.9772 30.8C90.4705 30.32 90.1105 29.72 89.8972 29C89.7105 28.28 89.6172 27.5467 89.6172 26.8V8.08H93.8972V25.52C93.8972 26.3467 94.0172 27 94.2572 27.48C94.4972 27.9333 94.9905 28.16 95.7372 28.16C96.2172 28.16 96.7105 28.0267 97.2172 27.76C97.7505 27.4667 98.2572 27.12 98.7372 26.72V8.08H103.017V31.2H98.7372V28.92C97.9905 29.64 97.1372 30.2533 96.1772 30.76C95.2439 31.2667 94.2172 31.52 93.0972 31.52ZM107.394 31.2V8.08H111.674V10.36C112.448 9.64 113.301 9.02666 114.234 8.52C115.168 8.01333 116.194 7.76 117.314 7.76C118.248 7.76 118.954 8 119.434 8.48C119.941 8.96 120.288 9.56 120.474 10.28C120.688 11 120.794 11.7333 120.794 12.48V31.2H116.514V13.72C116.514 12.8933 116.394 12.2533 116.154 11.8C115.914 11.3467 115.421 11.12 114.674 11.12C114.194 11.12 113.688 11.2667 113.154 11.56C112.648 11.8267 112.154 12.16 111.674 12.56V31.2H107.394ZM125.253 31.2V8.08H129.533V31.2H125.253ZM125.253 4.64V0.16H129.533V4.64H125.253ZM140.273 31.52C139.073 31.52 138.1 31.2933 137.353 30.84C136.633 30.3867 136.1 29.7467 135.753 28.92C135.433 28.0933 135.273 27.12 135.273 26V10.92H132.833V8.08H135.273V1.32H139.553V8.08H143.273V10.92H139.553V25.72C139.553 26.6267 139.7 27.28 139.993 27.68C140.286 28.0533 140.846 28.24 141.673 28.24C141.886 28.24 142.126 28.2267 142.393 28.2C142.686 28.1733 142.966 28.1467 143.233 28.12V31.28C142.7 31.36 142.206 31.4133 141.753 31.44C141.3 31.4933 140.806 31.52 140.273 31.52ZM146.058 37V33.72C147.098 33.72 147.924 33.6667 148.538 33.56C149.151 33.48 149.591 33.3067 149.858 33.04C150.124 32.8 150.258 32.4533 150.258 32C150.258 31.76 150.164 31.2267 149.978 30.4C149.791 29.5733 149.591 28.6933 149.378 27.76L144.738 8.08H149.058L152.178 25.36L155.178 8.08H159.498L153.978 32.48C153.738 33.6 153.298 34.48 152.658 35.12C152.018 35.7867 151.191 36.2667 150.178 36.56C149.191 36.8533 147.991 37 146.578 37H146.058ZM163.442 31.2V11.24H160.682V8.08H163.442V6.88C163.442 5.33333 163.602 4.05333 163.922 3.03999C164.269 2.02666 164.842 1.26666 165.642 0.759999C166.442 0.253333 167.535 0 168.922 0C169.269 0 169.629 0.0133332 170.002 0.0399995C170.402 0.0666658 170.815 0.106666 171.242 0.16V3.36C170.975 3.30666 170.709 3.26666 170.442 3.23999C170.202 3.21333 169.975 3.2 169.762 3.2C168.935 3.2 168.389 3.42666 168.122 3.88C167.855 4.33333 167.722 5.09333 167.722 6.16V8.08H177.162V31.2H172.882V11.24H167.722V31.2H163.442ZM173.282 4.64V0.16H177.202V4.64H173.282ZM179.93 31.2L185.13 19.04L180.05 8.08H184.13L187.53 15.4L190.53 8.08H194.73L189.45 19.56L194.81 31.2H190.73L187.09 23.36L183.97 31.2H179.93ZM197.077 31.2V26.44H201.357V31.2H197.077ZM210.903 31.52C209.196 31.52 207.849 31.1733 206.863 30.48C205.876 29.7867 205.169 28.8 204.743 27.52C204.343 26.24 204.143 24.7333 204.143 23V16.28C204.143 14.5467 204.343 13.04 204.743 11.76C205.169 10.48 205.876 9.49333 206.863 8.8C207.849 8.10666 209.196 7.76 210.903 7.76C212.609 7.76 213.943 8.10666 214.903 8.8C215.889 9.49333 216.583 10.48 216.983 11.76C217.409 13.04 217.623 14.5467 217.623 16.28V23C217.623 24.7333 217.409 26.24 216.983 27.52C216.583 28.8 215.889 29.7867 214.903 30.48C213.943 31.1733 212.609 31.52 210.903 31.52ZM210.903 28.36C211.729 28.36 212.303 28.12 212.623 27.64C212.969 27.16 213.169 26.5333 213.223 25.76C213.303 24.96 213.343 24.1333 213.343 23.28V16.04C213.343 15.16 213.303 14.3333 213.223 13.56C213.169 12.7867 212.969 12.16 212.623 11.68C212.303 11.1733 211.729 10.92 210.903 10.92C210.076 10.92 209.489 11.1733 209.143 11.68C208.796 12.16 208.583 12.7867 208.503 13.56C208.449 14.3333 208.423 15.16 208.423 16.04V23.28C208.423 24.1333 208.449 24.96 208.503 25.76C208.583 26.5333 208.796 27.16 209.143 27.64C209.489 28.12 210.076 28.36 210.903 28.36ZM221.655 31.2V8.08H225.935V11.36C226.788 9.94666 227.642 9 228.495 8.52C229.348 8.04 230.202 7.8 231.055 7.8C231.162 7.8 231.255 7.8 231.335 7.8C231.442 7.8 231.575 7.81333 231.735 7.83999V12.56C231.415 12.4267 231.042 12.32 230.615 12.24C230.215 12.1333 229.802 12.08 229.375 12.08C228.708 12.08 228.095 12.24 227.535 12.56C227.002 12.8533 226.468 13.44 225.935 14.32V31.2H221.655ZM240.272 38.44C238.859 38.44 237.579 38.28 236.432 37.96C235.312 37.6667 234.419 37.2 233.752 36.56C233.112 35.92 232.792 35.08 232.792 34.04C232.792 33.24 232.979 32.5333 233.352 31.92C233.726 31.3333 234.206 30.8267 234.792 30.4C235.379 29.9733 235.992 29.64 236.632 29.4L238.632 29.68C238.286 30 237.952 30.3333 237.632 30.68C237.312 31 237.046 31.3333 236.832 31.68C236.619 32.0533 236.512 32.4533 236.512 32.88C236.512 33.5733 236.806 34.0933 237.392 34.44C238.006 34.7867 239.086 34.96 240.632 34.96C242.152 34.96 243.272 34.7733 243.992 34.4C244.739 34.0533 245.112 33.4933 245.112 32.72C245.112 32.24 245.019 31.84 244.832 31.52C244.646 31.2267 244.326 30.9867 243.872 30.8C243.419 30.6133 242.766 30.48 241.912 30.4L236.872 29.76C235.832 29.6267 235.059 29.2933 234.552 28.76C234.046 28.2267 233.792 27.64 233.792 27C233.792 26.04 234.059 25.2267 234.592 24.56C235.152 23.8933 235.899 23.1467 236.832 22.32L238.272 23.44C238.112 23.6533 237.912 23.96 237.672 24.36C237.432 24.7333 237.312 25.1067 237.312 25.48C237.312 25.7733 237.459 26.0133 237.752 26.2C238.072 26.3867 238.566 26.5067 239.232 26.56L243.112 26.92C244.926 27.08 246.272 27.6267 247.152 28.56C248.032 29.4933 248.472 30.8267 248.472 32.56C248.472 33.84 248.166 34.92 247.552 35.8C246.966 36.68 246.072 37.3333 244.872 37.76C243.672 38.2133 242.139 38.44 240.272 38.44ZM240.432 24.08C238.859 24.08 237.579 23.7333 236.592 23.04C235.606 22.3467 234.872 21.3867 234.392 20.16C233.939 18.9333 233.712 17.5333 233.712 15.96C233.712 14.1733 233.966 12.68 234.472 11.48C234.979 10.2533 235.726 9.33333 236.712 8.72C237.726 8.08 238.966 7.76 240.432 7.76C241.952 7.76 243.192 8.14666 244.152 8.92C245.112 9.66666 245.819 10.6667 246.272 11.92C246.726 13.1733 246.952 14.56 246.952 16.08C246.952 17.6533 246.739 19.0533 246.312 20.28C245.912 21.48 245.232 22.4133 244.272 23.08C243.339 23.7467 242.059 24.08 240.432 24.08ZM240.432 21C241.019 21 241.486 20.8933 241.832 20.68C242.179 20.44 242.432 20.1067 242.592 19.68C242.779 19.2533 242.899 18.7333 242.952 18.12C243.032 17.48 243.072 16.76 243.072 15.96C243.072 15.16 243.046 14.44 242.992 13.8C242.939 13.16 242.819 12.6267 242.632 12.2C242.446 11.7467 242.179 11.4 241.832 11.16C241.486 10.92 241.032 10.8 240.472 10.8C239.886 10.8 239.406 10.92 239.032 11.16C238.686 11.3733 238.406 11.7067 238.192 12.16C238.006 12.5867 237.872 13.12 237.792 13.76C237.739 14.4 237.712 15.1333 237.712 15.96C237.712 16.68 237.739 17.3467 237.792 17.96C237.872 18.5733 238.006 19.1067 238.192 19.56C238.379 20.0133 238.646 20.3733 238.992 20.64C239.366 20.88 239.846 21 240.432 21ZM246.152 11.96L245.152 10.36C245.366 9.98666 245.846 9.52 246.592 8.95999C247.339 8.4 248.139 7.93333 248.992 7.56L250.112 10.36C249.739 10.44 249.232 10.5867 248.592 10.8C247.979 11.0133 247.419 11.24 246.912 11.48C246.406 11.6933 246.152 11.8533 246.152 11.96Z" fill="#404040"/>
<path d="M0 33.76H142V36.96H0V33.76ZM158 33.76H229V36.96H158V33.76Z" fill="#3B82F5"/>
</g>
<defs>
<clipPath id="clip0_2008_32">
<rect width="251" height="39" fill="white"/>
</clipPath>
</defs>
</svg>
